HIERARCHY
ROOT Hips
{
	OFFSET 0.00000 0.00000 0.00000
	CHANNELS 6 Xposition Yposition Zposition Zrotation Yrotation Xrotation 
	JOINT LHipJoint
	{
		OFFSET 0 0 0
		CHANNELS 3 Zrotation Yrotation Xrotation
		JOINT LeftHip
		{
			OFFSET 1.49846 -1.74315 1.08250
			CHANNELS 3 Zrotation Yrotation Xrotation
			JOINT LeftKnee
			{
				OFFSET 2.40966 -6.62050 0.00000
				CHANNELS 3 Zrotation Yrotation Xrotation
				JOINT LeftAnkle
				{
					OFFSET 2.68066 -7.36505 0.00000
					CHANNELS 3 Zrotation Yrotation Xrotation
					JOINT LeftToe
					{
						OFFSET 0.14291 -0.39265 2.35870
						CHANNELS 3 Zrotation Yrotation Xrotation
						End Site
						{
							OFFSET 0.00000 -0.00000 1.20470
						}
					}
				}
			}
		}
	}
	JOINT RHipJoint
	{
		OFFSET 0 0 0
		CHANNELS 3 Zrotation Yrotation Xrotation
		JOINT RightHip
		{
			OFFSET -1.46318 -1.74316 1.08250
			CHANNELS 3 Zrotation Yrotation Xrotation
			JOINT RightKnee
			{
				OFFSET -2.39759 -6.58734 0.00000
				CHANNELS 3 Zrotation Yrotation Xrotation
				JOINT RightAnkle
				{
					OFFSET -2.63570 -7.24154 0.00000
					CHANNELS 3 Zrotation Yrotation Xrotation
					JOINT RightToe
					{
						OFFSET -0.17578 -0.48294 2.47180
						CHANNELS 3 Zrotation Yrotation Xrotation
						End Site
						{
							OFFSET -0.00000 -0.00000 1.26600
						}
					}
				}
			}
		}
	}
	JOINT lowerback
	{
		OFFSET 0 0 0
		CHANNELS 3 Zrotation Yrotation Xrotation
		JOINT Chest
		{
			OFFSET 0.00843 2.19877 -0.20423
			CHANNELS 3 Zrotation Yrotation Xrotation
			JOINT Chest2
			{
				OFFSET -0.03080 2.21436 -0.05138
				CHANNELS 3 Zrotation Yrotation Xrotation
				JOINT lowerneck
				{
					OFFSET 0 0 0
					CHANNELS 3 Zrotation Yrotation Xrotation
					JOINT Neck
					{
						OFFSET -0.04063 1.58841 0.30440
						CHANNELS 3 Zrotation Yrotation Xrotation
						JOINT Head
						{
							OFFSET 0.09277 1.59484 -0.39337
							CHANNELS 3 Zrotation Yrotation Xrotation
							End Site
							{
								OFFSET 0.03488 1.66530 -0.17040
							}
						}
					}
				}
				JOINT LeftCollar
				{
					OFFSET 0 0 0
					CHANNELS 3 Zrotation Yrotation Xrotation
					JOINT LeftShoulder
					{
						OFFSET 3.03849 1.31522 0.02556
CHANNELS 3 Zrotation Xrotation Yrotation
						JOINT LeftElbow
						{
OFFSET 0 -5.255370 0.000000
CHANNELS 3 Zrotation Xrotation Yrotation
							JOINT LeftWrist
							{
OFFSET 0 -3.388550 -0.000000
CHANNELS 3 Zrotation Xrotation Yrotation
								JOINT lhand
								{
									OFFSET 0 0 0
CHANNELS 3 Zrotation Xrotation Yrotation
									JOINT LFingers
									{
OFFSET 0 -0.614520 0.000000
CHANNELS 3 Zrotation Xrotation Yrotation
										End Site
										{
OFFSET 0 -0.495440 0.000000
										}
									}
								}
								JOINT LThumb
								{
OFFSET 0 0.000000 0.000000
CHANNELS 3 Zrotation Xrotation Yrotation
									End Site
									{
OFFSET 0 -0.503000 0.503000
									}
								}
							}
						}
					}
				}
				JOINT RightCollar
				{
					OFFSET 0 0 0
					CHANNELS 3 Zrotation Yrotation Xrotation
					JOINT RightShoulder
					{
						OFFSET -3.06926 1.12091 -0.13185
CHANNELS 3 Zrotation Xrotation Yrotation
						JOINT RightElbow
						{
OFFSET 0 -5.381830 0.000000
CHANNELS 3 Zrotation Xrotation Yrotation
							JOINT RightWrist
							{
OFFSET 0 -3.169880 0.000000
CHANNELS 3 Zrotation Xrotation Yrotation
								JOINT rhand
								{
									OFFSET 0 0 0
CHANNELS 3 Zrotation Xrotation Yrotation
									JOINT RFingers
									{
OFFSET 0 -0.637680 0.000000
CHANNELS 3 Zrotation Xrotation Yrotation
										End Site
										{
OFFSET 0 -0.514110 0.000000
										}
									}
								}
								JOINT RThumb
								{
OFFSET 0 0.000000 0.000000
CHANNELS 3 Zrotation Xrotation Yrotation
									End Site
									{
OFFSET 0 -0.521960 0.521960
									}
								}
							}
						}
					}
				}
			}
		}
	}
}
MOTION
Frames: 10
Frame Time: 0.008333333333333333
2.776800 17.368800 -44.683800 12.663100 4.592200 3.950800 0.000000 0.000000 0.000000 -30.973200 -20.618000 -0.993300 1.488400 7.707400 21.828700 -1.537600 21.476400 -11.159500 3.081400 -10.825600 -31.694100 0.000000 0.000000 0.000000 7.422500 24.191000 -5.829900 -4.086200 -12.274200 36.708900 -2.665200 -13.133500 -37.643500 -0.076600 1.785800 -4.914000 -11.050900 -1.639900 -0.279000 -5.661100 -1.822700 2.667100 0.213600 -1.094200 3.122100 -9.491900 -3.873300 -16.878600 15.381800 -6.617900 21.201300 6.223500 -2.120900 10.434700 0.000000 0.000000 0.000000 80.628500 6.916600 -4.726700 23.229200 -34.338500 7.267100 -6.964200 12.785500 9.727600 0.000000 0.000000 0.000000 -7.125000 0.000000 0.000000 -23.670000 20.422200 -15.262100 0.000000 0.000000 0.000000 -79.947600 5.746200 -9.530900 -25.109800 -36.316000 -8.354800 -40.547800 -169.104200 9.638600 0.000000 0.000000 0.000000 7.125000 0.000000 -0.000000 -12.249300 42.251300 -0.844600
2.751871 17.364981 -44.669243 12.780012 4.628955 4.104332 0.000000 0.000000 0.000000 -31.074307 -21.121956 -0.793285 1.472208 7.667178 21.707821 -1.633042 22.071263 -11.336443 3.177787 -10.977253 -32.203348 0.000000 0.000000 0.000000 7.362518 24.197889 -5.963257 -4.112633 -12.308771 36.833122 -2.743498 -13.070478 -37.991099 -0.068971 1.694916 -4.663334 -10.921129 -1.602335 -0.786658 -5.487848 -1.695959 2.702419 0.311160 -1.043799 3.437015 -9.916206 -4.124590 -16.915973 15.699335 -6.933377 21.169186 6.373437 -2.266047 10.508057 0.000000 0.000000 0.000000 80.345305 6.979006 -4.709501 23.531666 -34.665029 7.438492 -8.312731 13.010232 9.409621 0.000000 0.000000 0.000000 -7.125000 0.000000 0.000000 -24.598876 20.686268 -15.825223 0.000000 0.000000 0.000000 -80.430467 4.925747 -8.795881 -25.896009 -37.105780 -8.824857 -40.839304 -168.711223 9.674096 0.000000 0.000000 0.000000 7.125000 0.000000 0.000000 -12.522757 42.334473 -0.837951
2.754927 17.361513 -44.649884 12.930037 4.742938 4.143915 0.000000 0.000000 0.000000 -31.330990 -21.427070 -0.429240 1.437664 7.580556 21.447162 -1.659521 22.265125 -11.683066 3.613851 -11.627976 -34.428360 0.000000 0.000000 0.000000 7.197619 24.055536 -6.040686 -4.149124 -12.356312 37.004284 -2.811322 -12.854759 -38.182210 -0.061998 1.606168 -4.418340 -10.815883 -1.521208 -1.083371 -5.396856 -1.549845 2.675933 0.347505 -0.974153 3.563458 -10.007563 -4.397865 -16.944386 15.691252 -7.315613 21.321085 6.336732 -2.445592 10.631839 0.000000 0.000000 0.000000 79.949278 6.937655 -4.565574 23.564335 -34.700191 7.457076 -8.874299 13.100008 9.355555 0.000000 0.000000 0.000000 -7.125000 0.000000 0.000000 -24.970600 20.721348 -16.096033 0.000000 0.000000 0.000000 -80.067521 4.422380 -8.697828 -26.710154 -37.901288 -9.320533 -41.149937 -168.895497 9.704699 0.000000 0.000000 0.000000 7.125000 0.000000 0.000000 -12.813909 42.414607 -0.832264
2.777043 17.344462 -44.622091 13.026085 4.883561 4.076463 0.000000 0.000000 0.000000 -31.651968 -21.752959 -0.102538 1.453352 7.620176 21.566129 -1.665557 22.385407 -12.371658 3.461655 -11.407292 -33.666089 0.000000 0.000000 0.000000 7.108377 23.921878 -5.988408 -4.215395 -12.441576 37.312634 -2.843689 -12.610396 -38.180251 -0.075300 1.770343 -4.871529 -10.728577 -1.505895 -1.250904 -5.252007 -1.528604 2.508470 0.452660 -0.956257 3.479931 -10.130161 -4.589829 -16.886605 15.334419 -7.525734 21.769513 6.210358 -2.584757 10.802965 0.000000 0.000000 0.000000 79.331126 7.183685 -4.676752 23.418720 -34.543497 7.374406 -8.597643 13.066084 9.374342 0.000000 0.000000 0.000000 -7.125000 0.000000 0.000000 -24.788971 20.711472 -15.958926 0.000000 0.000000 0.000000 -79.572767 4.002775 -7.982411 -27.572511 -38.719683 -9.855100 -40.755968 -168.617197 10.216814 0.000000 0.000000 0.000000 7.125000 0.000000 0.000000 -12.512328 43.012012 -0.624347
2.808658 17.342360 -44.584366 13.112787 5.046826 4.023872 0.000000 0.000000 0.000000 -31.996111 -21.975317 0.407228 1.428459 7.557391 21.377648 -1.683281 22.532722 -12.699497 3.499036 -11.462166 -33.854879 0.000000 0.000000 0.000000 7.018243 23.624583 -5.649265 -4.188960 -12.407722 37.189966 -2.970969 -12.497519 -38.729809 -0.067148 1.672021 -4.600144 -10.735387 -1.498860 -1.748473 -5.115810 -1.446792 2.505238 0.587723 -0.928240 3.756173 -9.981769 -4.492211 -17.112206 14.872193 -7.336509 22.170235 6.053504 -2.519415 10.936191 0.000000 0.000000 0.000000 78.633892 7.381053 -4.617440 23.192727 -34.298959 7.246604 -6.314276 12.956593 9.303689 0.000000 0.000000 0.000000 -7.125000 0.000000 0.000000 -23.314022 20.824380 -14.752930 0.000000 0.000000 0.000000 -78.821564 3.862662 -7.595679 -28.293393 -39.384906 -10.309283 -39.358434 -167.923540 11.332460 0.000000 0.000000 0.000000 7.125000 0.000000 0.000000 -11.315033 44.212986 -0.222830
2.844645 17.337205 -44.544991 13.155844 5.158714 3.925408 0.000000 0.000000 0.000000 -32.265753 -21.915794 0.778516 1.413821 7.520278 21.266250 -1.669604 22.479562 -12.869448 3.525648 -11.500951 -33.988656 0.000000 0.000000 0.000000 6.971135 23.391583 -5.312609 -4.173256 -12.387429 37.116707 -3.068385 -12.357294 -39.110824 -0.056499 1.533608 -4.218492 -10.680778 -1.462088 -1.872762 -5.047095 -1.403203 2.313372 0.634410 -0.896152 3.619506 -9.749633 -4.179361 -17.416247 14.494290 -6.892330 22.707541 5.960932 -2.317558 11.100365 0.000000 0.000000 0.000000 77.874975 7.786905 -4.669265 22.999238 -34.087987 7.137898 -0.973172 12.062146 9.163483 0.000000 0.000000 0.000000 -7.125000 0.000000 0.000000 -19.757903 20.987567 -12.097466 0.000000 0.000000 0.000000 -77.932576 4.033213 -7.376996 -28.762484 -39.808804 -10.608300 -37.516014 -167.649160 12.578104 0.000000 0.000000 0.000000 7.125000 0.000000 0.000000 -9.640777 45.467942 0.112279
2.881099 17.329448 -44.502710 13.168956 5.178020 3.857548 0.000000 0.000000 0.000000 -32.481257 -21.792883 0.974144 1.423328 7.544452 21.338818 -1.621191 22.296020 -13.440253 3.253512 -11.094585 -32.599539 0.000000 0.000000 0.000000 7.122670 23.793073 -4.733200 -4.160267 -12.370710 37.056296 -3.202993 -12.575511 -39.886739 -0.047986 1.413911 -3.888471 -10.670090 -1.396511 -2.278877 -5.020805 -1.259077 2.274835 0.654342 -0.830563 3.797064 -9.483530 -3.989064 -17.703519 14.158191 -6.617794 23.004533 5.840744 -2.191077 11.202544 0.000000 0.000000 0.000000 77.168073 7.969683 -4.328158 22.670528 -33.726514 6.954497 6.816306 10.790379 8.504529 0.000000 0.000000 0.000000 -7.125000 0.000000 0.000000 -14.414848 21.508175 -8.390342 0.000000 0.000000 0.000000 -77.206361 4.252465 -7.602133 -28.734215 -39.783443 -10.590241 -36.124960 -167.069397 13.438939 0.000000 0.000000 0.000000 7.125000 0.000000 0.000000 -8.324036 46.289981 0.266822
2.914766 17.321700 -44.461979 13.188655 5.200142 3.820712 0.000000 0.000000 0.000000 -32.666374 -21.649916 1.104198 1.434611 7.572922 21.424187 -1.579036 22.127057 -13.834491 3.026313 -10.737399 -31.399470 0.000000 0.000000 0.000000 7.183234 23.974369 -4.336917 -4.153889 -12.362367 37.026334 -3.311876 -12.630414 -40.428081 -0.040978 1.306870 -3.593553 -10.652575 -1.353401 -2.671564 -5.075544 -1.139615 2.282639 0.584555 -0.778435 4.016742 -9.402077 -4.048472 -17.946851 13.958837 -6.677316 23.195492 5.749069 -2.221775 11.319911 0.000000 0.000000 0.000000 76.846982 8.065728 -3.890381 22.353776 -33.374488 6.779394 12.021203 9.820101 7.624728 0.000000 0.000000 0.000000 -7.125000 0.000000 0.000000 -10.755318 22.228652 -5.990825 0.000000 0.000000 0.000000 -76.767094 4.439951 -7.946326 -28.207728 -39.306782 -10.255000 -35.561828 -166.498973 13.783411 0.000000 0.000000 0.000000 7.125000 0.000000 0.000000 -7.779906 46.611756 0.311312
2.944988 17.316145 -44.427709 13.187321 5.272173 3.809609 0.000000 0.000000 0.000000 -32.799846 -21.561063 1.161547 1.454326 7.622565 21.573394 -1.536346 21.951843 -14.184633 2.924489 -10.571741 -30.848906 0.000000 0.000000 0.000000 7.032076 23.512503 -4.365484 -4.154739 -12.363518 37.030515 -3.333549 -12.258223 -40.300320 -0.039079 1.276114 -3.508801 -10.688418 -1.353666 -2.709247 -5.093945 -1.143562 2.169767 0.586783 -0.774309 3.919647 -9.599820 -4.333280 -17.936302 13.779031 -6.995960 23.335164 5.669855 -2.403913 11.415812 0.000000 0.000000 0.000000 76.862125 8.203476 -3.872374 21.947649 -32.917848 6.557341 15.681653 9.191574 7.367221 0.000000 0.000000 0.000000 -7.125000 0.000000 0.000000 -8.111768 22.355098 -4.460676 0.000000 0.000000 0.000000 -76.878337 4.918160 -7.538988 -27.734888 -38.870970 -9.956835 -34.815076 -166.634067 13.656532 0.000000 0.000000 0.000000 7.125000 0.000000 0.000000 -7.054548 46.343829 0.235140
2.971156 17.304971 -44.390430 13.163116 5.308230 3.868412 0.000000 0.000000 0.000000 -32.885626 -21.565499 1.084683 1.494700 7.723086 21.875987 -1.489085 21.803294 -14.748671 2.865705 -10.474384 -30.527034 0.000000 0.000000 0.000000 7.133681 23.840758 -4.157398 -4.176187 -12.391173 37.130304 -3.399824 -12.297650 -40.630276 -0.041600 1.316920 -3.621200 -10.714225 -1.333716 -2.842434 -5.148786 -1.104061 2.066329 0.545570 -0.750302 3.882182 -9.916592 -4.815614 -17.657896 13.635063 -7.592710 23.448342 5.578746 -2.728990 11.495870 0.000000 0.000000 0.000000 77.067926 8.079152 -3.607223 21.516223 -32.425938 6.324505 18.719827 9.180331 6.454476 0.000000 0.000000 0.000000 -7.125000 0.000000 0.000000 -5.910967 23.176768 -3.123804 0.000000 0.000000 0.000000 -76.855745 5.208837 -8.132545 -26.904745 -38.088115 -9.440347 -33.003338 -166.526866 13.446859 0.000000 0.000000 0.000000 7.125000 0.000000 0.000000 -5.315421 45.824841 0.108662
